<svg viewBox="0 0 18 18" xmlns="http://www.w3.org/2000/svg">
  <path d="M 17.81955 17.454981818181817  L 15.02145 17.454545454545453  L 15.02145 15.507054545454546  L 2.97945 15.507054545454546  L 2.97945 17.454545454545453  L 0.18405 17.454545454545453  L 0.18405 14.743854545454546  L 2.19015 14.743854545454546  L 2.19015 2.7102545454545455  L 0.18405 2.7102545454545455  L 0.18405 0  L 2.97945 0  L 2.97945 2  L 15.0246 2  L 15.0246 0  L 17.81955 0  L 17.81955 2.710690909090909  L 15.8076 2.710690909090909  L 15.8076 14.744290909090909  L 17.81955 14.744290909090909  L 17.81955 17.454981818181817  Z M 15.812100000000001 15.511854545454543  L 15.81345 16.686545454545453  L 17.02485 16.686545454545453  L 17.02485 15.511854545454543  L 15.812100000000001 15.511854545454543  Z M 0.9729 15.511854545454543  L 0.9729000000000008 16.686545454545453  L 2.184300000000001 16.686545454545453  L 2.184300000000001 15.511854545454543  L 0.9729 15.511854545454543  Z M 12.973949999999999 14.566690909090909  L 14.8329 14.564945454545454  L 8.11305 2.8965818181818177  L 6.3481499999999995 2.8965818181818177  L 12.973949999999999 14.566690909090909  Z M 10.8657 14.564945454545454  L 12.523050000000001 14.564945454545454  L 5.89365 2.8948363636363634  L 4.6521 2.8948363636363634  L 10.8657 14.564945454545454  Z M 9.14085 14.564509090909091  L 10.416150000000002 14.564945454545454  L 4.203 2.8948363636363634  L 3.2062500000000003 2.8948363636363634  L 3.2062500000000003 3.1614545454545455  L 9.14085 14.564509090909091  Z M 7.2666 14.564509090909091  L 8.695800000000002 14.564945454545454  L 3.20175 4.004945454545455  L 3.1887 6.912436363636363  L 7.2666 14.564509090909091  Z M 5.44095 14.564945454545455  L 6.820200000000002 14.564945454545454  L 3.1851 7.746763636363636  L 3.1738500000000003 10.326109090909092  L 5.44095 14.564945454545455  Z M 3.793050000000002 14.565381818181818  L 4.992300000000002 14.564945454545454  L 3.1702500000000016 11.158690909090907  L 3.1599000000000017 13.550399999999998  L 3.793050000000002 14.565381818181818  Z M 3.15675 14.285672727272726  L 3.1554000000000015 14.564945454545454  L 3.3308999999999997 14.564945454545454  L 3.15675 14.285672727272726  Z M 8.568450000000002 2.8970181818181797  L 14.833350000000003 13.768581818181817  L 14.833350000000003 10.882472727272726  L 10.108350000000003 2.8970181818181797  L 8.568450000000002 2.8970181818181797  Z M 10.566450000000003 2.8948363636363608  L 14.833350000000003 10.11054545454545  L 14.833350000000003 7.206109090909088  L 12.205350000000001 2.8948363636363608  L 10.566450000000003 2.8948363636363608  Z M 12.667050000000003 2.8961454545454512  L 14.833350000000003 6.447272727272724  L 14.833350000000003 3.872727272727269  L 14.177250000000003 2.8961454545454512  L 12.667050000000003 2.8961454545454512  Z M 14.653350000000001 2.89483636363636  L 14.833350000000003 3.1653818181818147  L 14.833350000000003 2.89483636363636  L 14.653350000000001 2.89483636363636  Z M 15.812100000000003 0.7688727272727272  L 15.811650000000002 1.9435636363636326  L 17.02305 1.9435636363636326  L 17.02305 0.7688727272727272  L 15.812100000000003 0.7688727272727272  Z M 0.9711 0.7688727272727272  L 0.971100000000003 1.9435636363636326  L 2.1825000000000028 1.9435636363636326  L 2.1825000000000028 0.7688727272727272  L 0.9711 0.7688727272727272  Z " fill="currentColor" fill-rule="nonzero" />
</svg>
