<svg viewBox="0 0 19 18" xmlns="http://www.w3.org/2000/svg">
  <path d="M 18.343209869212963 8.995076935096153  C 18.343209869212963 8.725784625  18.12152756712963 8.507692298076924  17.847802461805554 8.507692298076924  L 16.823460079861114 8.507692298076924  C 16.575756376157408 4.827692314903846  13.576790130787035 1.8772923028846156  9.836213994212963 1.633599995192308  L 9.836213994212963 0.6258461538461538  C 9.836213994212963 0.35655384375  9.614531692129631 0.13846153846153858  9.340806586805556 0.13846153846153858  L 9.330798358796297 0.13846153846153858  C 9.057073253472222 0.13846153846153858  8.835390951388888 0.3565538437500003  8.835390951388888 0.6258461538461538  L 8.835390951388888 1.633599995192308  C 5.094814814814814 1.8772923028846156  2.0958485694444446 4.827692314903846  1.8481448657407407 8.507692298076924  L 0.8238024618055554 8.507692298076924  C 0.5500773564814814 8.507692298076924  0.32839505439814826 8.725784603365385  0.32839505439814826 8.995076913461538  L 0.32839505439814826 9.004923064903847  C 0.32839505439814826 9.274215375  0.5500773564814817 9.492307680288462  0.8238024618055554 9.492307680288462  L 1.84814484375 9.492307680288462  C 2.0958485694444446 13.172307685096154  5.094814814814814 16.122707697115384  8.835390951388888 16.366400004807694  L 8.835390951388888 17.374153846153845  C 8.835390951388888 17.64344615625  9.057073253472222 17.861538461538462  9.330798358796297 17.861538461538462  L 9.340806586805556 17.861538461538462  C 9.61453169212963 17.861538461538462  9.836213994212963 17.64344615625  9.836213994212963 17.374153846153845  L 9.836213994212963 16.366400004807694  C 13.576790130787035 16.122707697115384  16.575756376157408 13.172307685096154  16.823460079861114 9.492307701923075  L 17.847802461805554 9.492307701923075  C 18.12152756712963 9.492307701923075  18.343209869212963 9.274215396634615  18.343209869212963 9.004923086538462  L 18.343209869212963 8.995076935096153  Z M 9.835963783564814 3.11446153125  C 12.74860904861111 3.3522461610576917  15.07652346412037 5.642461536057692  15.318222222222223 8.507692298076924  L 14.439499578703705 8.507692298076924  C 14.203055134259262 6.1175384567307685  12.265461721064815 4.21132307451923  9.835963783564814 3.978707689903847  L 9.835963783564814 3.11446153125  Z M 11.587654313657406 9.004923064903847  C 11.587654313657406 9.274215375  11.80933661574074 9.492307701923075  12.083061721064814 9.492307701923075  L 13.683627966435184 9.492307701923075  C 13.452938256944442 11.474338478365384  11.850870769675925 13.050461552884613  9.83621397222222 13.277415396634616  L 9.836213994212963 11.702769230769231  C 9.836213994212963 11.433476920673078  9.614531692129631 11.215384615384615  9.340806586805556 11.215384615384615  L 9.330798358796297 11.215384615384615  C 9.057073253472222 11.215384615384615  8.835390951388888 11.433476920673076  8.835390951388888 11.702769230769231  L 8.835390951388888 13.277415375  C 6.8207341539351845 13.050461531249999  5.218666666666667 11.474338456730768  4.987976957175926 9.492307701923075  L 6.588543202546296 9.492307701923075  C 6.86226830787037 9.492307701923075  7.083950609953703 9.274215396634615  7.083950609953703 9.004923086538462  L 7.083950609953703 8.995076935096153  C 7.083950609953703 8.725784625  6.86226830787037 8.507692319711538  6.588543202546296 8.507692319711538  L 4.987976957175926 8.507692319711538  C 5.218666666666667 6.525661543269228  6.8207341539351845 4.949538468749998  8.835390951388888 4.722584624999998  L 8.835390951388888 6.297230769230767  C 8.835390951388888 6.56652307932692  9.057073253472222 6.784615384615383  9.330798358796297 6.784615384615383  L 9.340806586805556 6.784615384615383  C 9.61453169212963 6.784615384615383  9.836213994212963 6.56652307932692  9.836213994212963 6.297230769230767  L 9.836213994212963 4.722584624999998  C 11.850870791666665 4.949538468749999  13.452938278935187 6.525661543269232  13.683627988425926 8.507692298076924  L 12.083061721064814 8.507692298076924  C 11.80933661574074 8.507692298076924  11.587654313657406 8.725784603365385  11.587654313657406 8.995076913461538  L 11.587654313657406 9.004923064903847  Z M 3.35338272337963 8.507692298076924  C 3.5950814814814818 5.642461536057692  5.922995875 3.3522461610576917  8.835390951388888 3.11446153125  L 8.835390951388888 3.9789538485576923  C 6.405893013888888 4.21132307451923  4.468299578703704 6.11753845673077  4.231855134259259 8.507692298076924  L 3.35338272337963 8.507692298076924  Z M 8.835641162037037 14.885784627403845  C 5.922995875 14.647753838942307  3.5950814814814818 12.357538463942308  3.35338272337963 9.492307701923075  L 4.232105366898148 9.492307701923075  C 4.468549811342593 11.88246154326923  6.406143224537038 13.788676925480768  8.835641162037037 14.021292310096154  L 8.835641162037037 14.885784627403845  Z M 15.31847243287037 9.492307701923075  C 15.07652346412037 12.357538463942308  12.74860904861111 14.647753838942307  9.836213994212963 14.885538468750001  L 9.836213994212963 14.02104615144231  C 12.265711931712962 13.78867692548077  14.203305344907408 11.882461543269232  14.43974978935185 9.492307701923075  L 15.31847243287037 9.492307701923075  Z " fill="currentColor" fill-rule="nonzero" />
</svg>
