<svg viewBox="0 0 18 18" xmlns="http://www.w3.org/2000/svg">
  <path d="M 17.562669732421874 6.927568456582447  C 18.01004073046875 6.31243337962609  18.01004073046875 6.088747884312417  17.50674835546875 5.529534181184477  L 12.361981904296876 0.3847679999074468  C 11.858689529296875 -0.11852434697019731  11.579082662109375 -0.11852434697019731  11.1317116640625 0.3288466260790281  C 7.4968223203125 3.907814392894707  3.9178543359375 7.486782177288511  0.338886369140625 11.12167131793261  C -0.052563251953125015 11.513120917153417  -0.10848462890624999 11.904570516374223  0.338886369140625 12.351941489423448  C 2.128370361328125 14.085504007791931  3.861932958984375 15.874987882410707  5.651416951171874 17.66447177460761  C 5.81918108203125 17.832235896092865  5.986945195312499 17.944078626171578  6.210630703124999 17.944078626171578  C 6.546158947265624 17.944078626171578  6.713923078124999 17.720393148436028  6.937608568359374 17.552629026950772  L 17.562669732421874 6.927568456582447  Z M 15.717264380859376 5.5295341811844745  C 16.16463537890625 6.0328265280621185  16.16463537890625 6.368354753454507  15.66134300390625 6.815725708925611  L 6.7698444375 15.707223778503575  C 6.322473439453124 16.154594751552803  5.986945195312499 16.154594751552803  5.539574197265625 15.707223778503575  L 2.1842917382812503 12.351941489423448  C 1.8487634941406252 12.01641326403106  1.68099936328125 11.680885038638671  2.016527607421875 11.289435421839741  C 2.296134474609375 10.897985822618935  2.519819982421875 10.730221701133678  2.9112696035156254 11.177592691761028  C 3.4145619785156254 11.73680641246709  3.9737757128906255 12.24009874176661  4.4770680878906255 12.799312462472674  C 4.700753578125001 13.022997940208224  4.812596332031251 13.078919314036641  5.092203216796875 12.799312462472674  C 5.707338328125 12.184177385516316  5.707338328125 12.184177385516316  5.092203216796875 11.569042290981834  L 3.694168845703125 10.17100799800574  C 3.4704833554687498 9.947322520270188  3.4145619785156254 9.83547977261335  3.694168845703125 9.555872921049382  C 4.365225333984375 8.884816470264603  4.30930395703125 8.884816470264603  4.9803604628906255 9.555872921049382  C 5.204045953125 9.77955839878493  5.4836528378906255 10.003243894098606  5.651416951171875 10.226929371834157  C 6.042866572265625 10.730221718711801  6.322473439453125 10.730221718711801  6.713923078125 10.226929371834157  C 6.9935299453125 9.891401146441769  7.1053726992187505 9.723637024956512  6.713923078125 9.444030173392541  C 6.4343162109375 9.220344695656992  6.154709326171876 8.88481645268648  5.875102458984376 8.661130974950929  C 5.204045970703126 7.990074524166152  5.204045970703126 7.990074524166152  5.931023818359376 7.3190180558032525  C 6.154709308593751 7.151253934317996  6.210630685546876 7.095332578067702  6.434316193359376 7.3190180558032525  C 6.937608568359377 7.878231776509315  7.496822302734377 8.381524105808836  8.000114677734377 8.940737826514898  C 8.335642921875001 9.276266051907285  8.5593284296875 9.444030173392541  8.95077805078125 8.996659200343316  C 9.286306294921877 8.60520960112251  9.509991802734376 8.437445479637255  9.006699427734375 7.990074506588028  C 8.44748567578125 7.542703533538803  8.000114677734375 6.98348981283274  7.440900943359375 6.480197483533221  C 7.161294076171875 6.200590631969252  7.217215453125 6.088747884312414  7.440900943359375 5.865062406576864  C 8.0560360546875 5.305848685870801  8.000114695312499 5.2499273296205065  8.615249806640625 5.865062406576864  L 9.6218345390625 6.871647082754028  C 9.789598669921872 7.095332560489578  9.957362783203125 7.039411204239284  10.125126914062498 6.871647082754028  C 10.852104779296873 6.256512005797671  10.852104779296873 6.256512005797671  10.125126914062498 5.58545553743477  C 9.845520046874999 5.305848685870801  9.565913162109375 4.970320460478413  9.230384917968749 4.690713608914444  C 8.783013919921874 4.299264009693637  9.174463541015625 4.131499888208381  9.398149048828124 3.9637357667231248  C 9.6218345390625 3.795971645237869  9.733677292968746 3.292679315938349  10.181048291015623 3.7400502889875744  L 11.858689529296875 5.417691433527638  C 12.30606052734375 5.9769051542337  12.473824640625 5.417691433527638  12.753431525390624 5.249927312042382  C 13.088959769531249 5.0262418343068305  13.200802523437499 4.802556338993156  12.809352902343749 4.467028113600768  C 12.250139150390625 4.019657140551542  11.802768152343749 3.516364793673898  11.29947577734375 2.9571510905459593  C 11.131711646484375 2.7893869690607036  10.796183402343749 2.67754423898199  10.963947533203125 2.4538587436683152  C 11.1317116640625 2.174251892104346  11.355397154296876 1.8946450229622527  11.746846775390626 1.8946450229622527  C 12.026453642578126 1.8946450229622527  12.1942177734375 2.0064877706190902  12.361981904296877 2.174251892104346  L 15.717264380859376 5.5295341811844745  Z " fill="currentColor" fill-rule="nonzero" />
</svg>
